<svg width="62" height="62" viewBox="0 0 62 62" fill="none" xmlns="http://www.w3.org/2000/svg">
<path d="M62 31C62 48.1208 48.1208 62 31 62C13.8792 62 0 48.1208 0 31C0 13.8792 13.8792 0 31 0C48.1208 0 62 13.8792 62 31Z" fill="#3C57BA"/>
<path d="M25.4235 25.3483H36.5765V36.6461L47.9492 25.3483L47.9718 25.3259L36.6836 14.112L36.5765 14H14V25.3035L14.0451 25.3483H25.4235V48H14V36.6461" fill="white"/>
<path d="M48 36.6461V48H36.8076C36.7287 48 36.6554 48 36.5765 47.9944C34.5871 47.9608 32.7217 47.4121 31.1099 46.4828C27.8581 44.6184 25.6208 41.2033 25.4235 37.2564V36.6461H48Z" fill="white"/>
</svg>
